<?xml version="1.0" encoding="UTF-8" standalone="no"?>
<!-- Created with Inkscape (http://www.inkscape.org/) -->

<svg
   xmlns:dc="http://purl.org/dc/elements/1.1/"
   xmlns:cc="http://creativecommons.org/ns#"
   xmlns:rdf="http://www.w3.org/1999/02/22-rdf-syntax-ns#"
   xmlns:svg="http://www.w3.org/2000/svg"
   xmlns="http://www.w3.org/2000/svg"
   xmlns:sodipodi="http://sodipodi.sourceforge.net/DTD/sodipodi-0.dtd"
   xmlns:inkscape="http://www.inkscape.org/namespaces/inkscape"
   width="210mm"
   height="297mm"
   viewBox="0 0 210 297"
   version="1.1"
   id="svg8"
   sodipodi:docname="engrenagem-25.svg"
   inkscape:version="0.92.1 r">
  <sodipodi:namedview
     id="base"
     pagecolor="#ffffff"
     bordercolor="#666666"
     borderopacity="1.0"
     inkscape:pageopacity="0.0"
     inkscape:pageshadow="2"
     inkscape:zoom="2.8"
     inkscape:cx="222.37493"
     inkscape:cy="637.31417"
     inkscape:document-units="mm"
     inkscape:current-layer="layer1"
     showgrid="false"
     inkscape:window-width="1920"
     inkscape:window-height="1015"
     inkscape:window-x="0"
     inkscape:window-y="0"
     inkscape:window-maximized="1" />
  <defs
     id="defs2" />
  <metadata
     id="metadata5">
    <rdf:RDF>
      <cc:Work
         rdf:about="">
        <dc:format>image/svg+xml</dc:format>
        <dc:type
           rdf:resource="http://purl.org/dc/dcmitype/StillImage" />
        <dc:title></dc:title>
      </cc:Work>
    </rdf:RDF>
  </metadata>
  <g
     id="layer1"
     inkscape:groupmode="layer"
     inkscape:label="Camada 1">
    <g
       id="g372"
       inkscape:label="Gear25"
       transform="translate(58.836700228,128.377292524)">
      <path
         id="path370"
         style="stroke:#000000;stroke-width:0.264583333328;fill:none"
         d="M8.39387,-0.65383 L8.57354,-0.66782 L9.13335,-0.57462 L9.88001,-0.26346 L9.88001,0.26346 L9.13335,0.57462 L8.57354,0.66782 L8.39387,0.65383 L8.29276,1.45419 L8.47027,1.48531 L8.98931,1.71480 L9.63513,2.20187 L9.50409,2.71224 L8.70351,2.82794 L8.13811,2.77899 L7.96756,2.72076 L7.67059,3.47083 L7.83478,3.54512 L8.28044,3.89648 L8.78484,4.52886 L8.53099,4.99061 L7.72679,4.90357 L7.19133,4.71555 L7.04062,4.61673 L6.56644,5.26938 L6.70700,5.38217 L7.05128,5.83333 L7.38257,6.57128 L7.02186,6.95539 L6.26457,6.67109 L5.79269,6.35581 L5.67129,6.22262 L5.04970,6.73684 L5.15779,6.88104 L5.37906,7.40365 L5.51642,8.20080 L5.07152,8.48314 L4.40872,8.01944 L4.03007,7.59672 L3.94562,7.43752 L3.21567,7.78100 L3.28451,7.94755 L3.36886,8.50876 L3.30366,9.31503 L2.80252,9.47786 L2.27586,8.86390 L2.01423,8.36029 L1.97202,8.18509 L1.17959,8.33625 L1.20484,8.51469 L1.14698,9.07925 L0.88331,9.84397 L0.35743,9.87706 L0.00000,9.15141 L-0.12817,8.59856 L-0.12548,8.41836 L-0.93061,8.36771 L-0.95053,8.54682 L-1.14698,9.07925 L-1.59253,9.75438 L-2.11013,9.65564 L-2.27586,8.86390 L-2.26251,8.29654 L-2.21510,8.12268 L-2.98234,7.87339 L-3.04617,8.04192 L-3.36886,8.50876 L-3.96831,9.05188 L-4.44509,8.82752 L-4.40872,8.01944 L-4.25470,7.47323 L-4.16554,7.31662 L-4.84667,6.88435 L-4.95042,7.03171 L-5.37906,7.40365 L-6.09475,7.78062 L-6.50076,7.44474 L-6.26457,6.67109 L-5.97955,6.18034 L-5.85424,6.05082 L-6.40647,5.46275 L-6.54361,5.57968 L-7.05128,5.83333 L-7.83824,6.02047 L-8.14796,5.59418 L-7.72679,4.90357 L-7.32868,4.49912 L-7.17509,4.40484 L-7.56373,3.69790 L-7.72564,3.77706 L-8.28044,3.89648 L-9.08921,3.88204 L-9.28319,3.39211 L-8.70351,2.82794 L-8.21732,2.53521 L-8.04511,2.48208 L-8.24574,1.70070 L-8.42224,1.73710 L-8.98931,1.71480 L-9.76908,1.49968 L-9.83512,0.97691 L-9.13335,0.57462 L-8.58964,0.41200 L-8.40963,0.40336 L-8.40963,-0.40336 L-8.58964,-0.41200 L-9.13335,-0.57462 L-9.83512,-0.97691 L-9.76908,-1.49968 L-8.98931,-1.71480 L-8.42224,-1.73710 L-8.24574,-1.70070 L-8.04511,-2.48208 L-8.21732,-2.53521 L-8.70351,-2.82794 L-9.28319,-3.39211 L-9.08921,-3.88204 L-8.28044,-3.89648 L-7.72564,-3.77706 L-7.56373,-3.69790 L-7.17509,-4.40484 L-7.32868,-4.49912 L-7.72679,-4.90357 L-8.14796,-5.59418 L-7.83824,-6.02047 L-7.05128,-5.83333 L-6.54361,-5.57968 L-6.40647,-5.46275 L-5.85424,-6.05082 L-5.97955,-6.18034 L-6.26457,-6.67109 L-6.50076,-7.44474 L-6.09475,-7.78062 L-5.37906,-7.40365 L-4.95042,-7.03171 L-4.84667,-6.88435 L-4.16554,-7.31662 L-4.25470,-7.47323 L-4.40872,-8.01944 L-4.44509,-8.82752 L-3.96831,-9.05188 L-3.36886,-8.50876 L-3.04617,-8.04192 L-2.98234,-7.87339 L-2.21510,-8.12268 L-2.26251,-8.29654 L-2.27586,-8.86390 L-2.11013,-9.65564 L-1.59253,-9.75438 L-1.14698,-9.07925 L-0.95053,-8.54682 L-0.93061,-8.36771 L-0.12548,-8.41836 L-0.12817,-8.59856 L-0.00000,-9.15141 L0.35743,-9.87706 L0.88331,-9.84397 L1.14698,-9.07925 L1.20484,-8.51469 L1.17959,-8.33625 L1.97202,-8.18509 L2.01423,-8.36029 L2.27586,-8.86390 L2.80252,-9.47786 L3.30366,-9.31503 L3.36886,-8.50876 L3.28451,-7.94755 L3.21567,-7.78100 L3.94562,-7.43752 L4.03007,-7.59672 L4.40872,-8.01944 L5.07152,-8.48314 L5.51642,-8.20080 L5.37906,-7.40365 L5.15779,-6.88104 L5.04970,-6.73684 L5.67129,-6.22262 L5.79269,-6.35581 L6.26457,-6.67109 L7.02186,-6.95539 L7.38257,-6.57128 L7.05128,-5.83333 L6.70700,-5.38217 L6.56644,-5.26938 L7.04062,-4.61673 L7.19133,-4.71555 L7.72679,-4.90357 L8.53099,-4.99061 L8.78484,-4.52886 L8.28044,-3.89648 L7.83478,-3.54512 L7.67059,-3.47083 L7.96756,-2.72076 L8.13811,-2.77899 L8.70351,-2.82794 L9.50409,-2.71224 L9.63513,-2.20187 L8.98931,-1.71480 L8.47027,-1.48531 L8.29276,-1.45419z" />
    </g>
  </g>
</svg>
